<svg width="120" height="100" viewBox="0 0 120 100" fill="none" xmlns="http://www.w3.org/2000/svg">
    <g id="triangle" clip-path="url(#clip0_1_5)">
        <g id="darkGroup">
            <path  
            id="dark1" 
            opacity="0.7" 
            d="M58 48.7679C59.3333 49.5377 59.3333 51.4623 58 52.2321L24.25 71.7176C22.9167 72.4874 21.25 71.5252 21.25 69.9856V31.0144C21.25 29.4748 22.9167 28.5126 24.25 29.2824L58 48.7679Z" fill="#5A92FF"
            />

            <path 
            id="dark2" 
            opacity="0.7" 
            d="M44 48.7679C45.3333 49.5377 45.3333 51.4623 44 52.2321L10.25 71.7176C8.91667 72.4874 7.25 71.5252 7.25 69.9856V31.0144C7.25 29.4748 8.91667 28.5126 10.25 29.2824L44 48.7679Z" fill="#5A92FF"
            />
        </g>
        <g id="lightGroup">
            <path 
            id="light1" 
            opacity="0.7" 
            d="M44 48.7679C45.3333 49.5377 45.3333 51.4623 44 52.2321L10.25 71.7176C8.91667 72.4874 7.25 71.5252 7.25 69.9856V31.0144C7.25 29.4748 8.91667 28.5126 10.25 29.2824L44 48.7679Z" fill="#A0C1FF"
            />
        </g>
    </g>
</svg>
